<?xml version="1.0" encoding="UTF-8" standalone="no"?>
<svg class="logo-svg" width="300" height="280" version="1.1" xmlns="http://www.w3.org/2000/svg">
  <style/>
  <path
     d="m 147.13562,12.755727 a 138.66968,134.97506 0 0 0 -9.40287,0.32419 l 3.56398,26.906267 c 2.56109,1.046248 4.93506,2.242234 7.24522,3.187798 2.81137,0.847397 5.6324,2.523681 7.36701,5.355918 1.93943,0.596439 3.76816,1.327464 5.52726,2.081229 l 0.88776,-36.983338 a 138.66968,134.97506 0 0 0 -15.18836,-0.872064 z m 45.48274,7.62838 -7.76797,44.367094 c 1.51777,0.892965 2.94459,2.086812 4.01799,3.737069 3.35987,0.980701 6.30974,2.420199 9.13067,3.529435 1.05525,0.310163 2.05046,0.761086 2.96482,1.327813 L 215.6047,30.465365 A 138.66968,134.97506 0 0 0 192.61836,20.384107 Z m -80.59981,9.794059 -7.05049,15.011788 a 3.1270413,3.1270413 0 0 1 0.0478,0.02059 l 12.30452,6.030816 z m 36.5227,12.99791 a 3.1270413,3.1270413 0 0 1 0.0265,0.0087 c -0.008,-0.003 -0.0154,-0.0051 -0.023,-0.008 z m 91.2094,4.295762 -25.18587,49.751278 12.91241,6.023834 28.77253,-38.750494 A 138.66968,134.97506 0 0 0 239.75065,47.471838 Z M 26.995609,80.552697 A 138.66968,134.97506 0 0 0 16.734285,102.30998 l 106.217695,67.50663 c 0.0854,-0.91063 0.16539,-1.78154 0.25405,-2.71216 l -64.221125,-57.77399 -10.528631,7.3199 a 3.2492964,3.2492964 0 0 1 -3.456152,0.15634 l -6.108288,-3.46174 a 3.2492964,3.2492964 0 0 1 -1.635949,-2.55163 L 35.342858,88.061731 Z m 60.003527,2.898156 -4.093361,8.716105 A 3.2492964,3.2492964 0 0 1 81.8177,93.457084 l -4.00263,2.782649 47.09565,54.179997 c 0.22534,-1.99652 0.4451,-3.83187 0.65431,-5.43722 l -4.22841,-6.74656 c -8.06407,-11.36997 -16.12707,-22.74131 -24.190969,-34.10995 0.01101,0.0154 0.02334,0.0297 0.0349,0.0447 a 3.1270413,3.1270413 0 0 1 -0.08445,-0.11761 c -1.857675,-2.2465 -3.778819,-5.487295 -3.0011,-9.281076 z m 184.323794,4.370091 -28.11263,28.994826 -11.97126,25.54007 a 3.1270413,3.1270413 0 0 1 -4.17467,1.49636 c -0.48793,-0.2322 -4.32657,-2.05542 -6.89276,-3.27504 l -22.50651,23.21282 c 1.48634,0.16855 2.95892,0.4414 4.40358,0.82531 l 77.74317,-55.74371 A 138.66968,134.97506 0 0 0 271.32293,87.820944 Z M 9.826169,129.95571 a 138.66968,134.97506 0 0 0 -1.3602665,17.77524 138.66968,134.97506 0 0 0 0.2142647,5.89298 l 39.3817758,10.6595 c 2.617647,-0.4746 5.296584,-0.71184 8.008753,-0.7119 2.740295,1.3e-4 5.439261,0.27794 8.077498,0.78344 3.145798,-1.34003 6.540062,-2.08987 9.984593,-2.08996 2.054125,0 4.310589,0.22489 6.551824,0.92337 z m 188.121231,0.0935 -8.16055,16.12009 c 0.0799,0.82355 0.15507,1.645 0.2195,2.45952 a 3.1270413,3.1270413 0 0 1 0.01,0.26347 c 4e-5,-0.006 4e-5,-0.0109 0,-0.0164 l -0.006,-0.18356 c 0.0436,0.68018 0.19059,2.40786 0.37478,4.51003 l 14.69178,-19.78668 c -2.61466,-1.23774 -4.88497,-2.30868 -7.12901,-3.36647 z m 87.23503,5.92508 -70.88078,36.57785 c 1.30939,1.83612 2.27941,3.94686 2.70169,6.27474 l 68.22587,-19.89138 a 138.66968,134.97506 0 0 0 0.57614,-11.20457 138.66968,134.97506 0 0 0 -0.62292,-11.75664 z M 84.879173,165.15548 c 0.496464,0.32593 0.984684,0.68599 1.461816,1.08355 1.865754,1.55471 3.182016,3.49075 4.079752,5.52516 0.501187,-0.0701 1.009856,-0.11932 1.534051,-0.11935 a 3.1270413,3.1270413 0 0 1 7.15e-4,0 c 3.871914,0 6.95549,1.73755 8.960733,3.4935 a 3.1270413,3.1270413 0 0 1 7.1e-4,0.002 c 1.24329,1.0896 2.46025,2.56079 3.33087,4.35124 l 12.43817,3.36647 0.0262,-0.0583 c 0.004,-0.009 0.009,-0.0213 0.0115,-0.0272 a 3.1270413,3.1270413 0 0 1 0.0237,-0.0537 c 0.32682,-0.72225 0.6813,-1.42861 1.05911,-2.1203 z m -72.084356,15.53873 a 138.66968,134.97506 0 0 0 3.893056,12.32789 l 3.565029,-7.99235 c 0.0028,-0.007 0.0061,-0.0141 0.0087,-0.0202 a 3.1270413,3.1270413 0 0 1 0.02338,-0.0527 c 0.474144,-1.0471 1.000833,-2.0631 1.573484,-3.04822 z m 202.700303,8.07052 -3.07613,6.90148 16.0196,2.73031 h 3.24712 c 0.46658,-0.56505 0.99607,-1.06729 1.56687,-1.52463 -0.14473,-0.72667 -0.23731,-1.47664 -0.23731,-2.25537 0,-2.17349 0.47858,-4.07273 1.07063,-5.6602 z m -112.68437,3.99006 c -0.69519,0.93029 -1.44778,1.78406 -2.24873,2.57259 2.6265,0.10505 5.38809,0.66179 7.96164,1.86521 l 1.77903,-0.0401 1.43006,-3.20245 z"
  />
  <path
     d="M 70.299405,-2.558336e-7 37.140028,70.648016 40.495329,110.52009 46.603617,113.98182 79.965044,90.788546 113.20294,20.013856 70.300801,0.00279236 Z M 52.009438,22.712403 39.23033,50.844239 42.170363,52.280579 55.293899,24.322181 Z M 134.2103,41.132185 c -0.0641,-5.36e-4 -0.12814,5.36e-4 -0.19228,0.0031 a 1.5828668,1.5828668 0 0 1 -0.0569,0 1.5828668,1.5828668 0 0 1 -0.0251,0.0014 c 0.2976,-0.0023 0.28469,0.0014 -0.0426,0.0056 -3.58657,0.04821 -6.83063,2.644927 -7.81717,6.084209 a 1.5828668,1.5828668 0 0 1 -0.12109,0.298713 c -1.4562,3.678909 -3.4928,7.940008 -3.4928,7.940008 a 1.5828668,1.5828668 0 0 1 -2.12415,0.737711 l -16.69834,-8.18463 -13.1005,27.894188 10.775,5.264491 a 1.5828668,1.5828668 0 0 1 0.72306,2.125546 c 0,0 -1.26552,2.541802 -4.824797,11.856445 -0.632666,2.536481 0.695474,4.996004 2.342952,6.970924 0.156054,0.18707 0.174423,0.21814 0.05584,0.0775 a 1.5828668,1.5828668 0 0 1 0.08096,0.10434 c 9.619035,13.5611 19.235805,27.12603 28.855245,40.68693 a 1.5828668,1.5828668 0 0 1 0.27708,1.13098 c -0.98536,7.17234 -2.3195,21.01642 -3.25201,31.20621 -2.47902,2.48815 -4.50679,5.42336 -5.97673,8.6718 -0.006,0.013 -0.0112,0.026 -0.0167,0.0391 l -8.37761,18.76038 c -3.12762,-3.17372 -7.5477,-4.38859 -11.585649,-4.38859 -5.065122,4e-5 -9.963089,1.20572 -14.10413,3.62366 l -3.305399,-1.75879 c 7.838441,-1.34884 14.255603,-4.02932 18.319288,-9.68727 h 0.006 c 0.008,-0.0105 0.0145,-0.023 0.0223,-0.0335 0.0382,-0.0535 0.0794,-0.10236 0.11725,-0.15633 l -0.0168,-0.0111 c 1.07392,-1.5309 1.74161,-3.62295 1.74204,-5.41037 -5.4e-4,-3.15674 -1.83146,-5.99572 -3.539912,-7.49298 -1.553323,-1.36022 -4.008107,-2.71895 -6.901137,-2.71913 -1.177345,9e-5 -2.40695,0.29474 -3.539903,0.75376 -0.624665,-2.55731 -1.940979,-5.10536 -4.075914,-6.88438 -3.099928,-2.58286 -6.775532,-3.24956 -10.206536,-3.24956 -3.333272,9e-5 -6.655205,0.77151 -9.659008,2.20545 -2.736334,-0.58988 -5.547576,-0.8988 -8.403083,-0.89893 -6.460715,1.6e-4 -12.662387,1.42531 -18.20831,4.29366 v -0.006 c -6.546834,3.37187 -11.746405,8.67251 -14.729125,15.25955 -0.0056,0.013 -0.0112,0.026 -0.01675,0.0391 L 1.9653723,233.705 c -0.019071,0.0463 -0.037684,0.0929 -0.055834,0.13958 C 0.76813899,236.54588 2.3761691e-8,239.28652 2.3761691e-8,242.26442 -7.4803871e-6,248.00489 4.1133009,253.70358 9.1289312,256.13369 c 5.0156298,2.43009 10.7651498,3.10999 17.8335198,3.10999 7.812355,0 14.948784,-1.31964 20.972115,-3.94751 0.649198,1.1863 1.621796,2.19382 2.784743,2.88419 1.162875,0.69029 2.512784,1.06148 3.865138,1.0633 h 17.342178 c 1.322195,-0.002 2.6424,-0.35707 3.787319,-1.01863 1.144793,-0.66157 2.111254,-1.62823 2.773227,-2.77288 0.930926,0.82975 1.943843,1.51316 3.003893,2.02714 l -0.0056,0.0111 c 0.05011,0.0251 0.105889,0.0423 0.156336,0.067 0.03275,0.0152 0.06209,0.0409 0.09492,0.0558 l 0.0056,-0.0111 c 1.998605,0.96392 4.251994,1.64153 6.700133,1.64153 5.337237,0 10.708153,-1.29865 16.091487,-3.62366 3.7217,2.43599 8.19792,3.62366 12.70792,3.62366 6.03851,0 12.07757,-1.67837 18.00102,-4.66252 l -0.17867,0.39641 c -0.019,0.0445 -0.0377,0.0892 -0.0558,0.134 -1.15343,2.72973 -1.90936,5.5458 -1.90954,8.5371 0,4.21894 2.14771,9.07278 5.8176,11.64706 3.67006,2.57428 7.77702,3.19373 12.11049,3.19373 4.57235,0 9.20317,-0.9839 13.85252,-2.74705 0.004,-0.002 0.007,-0.004 0.0112,-0.005 5.90541,-2.22945 11.01605,-5.77302 13.48402,-11.34556 l 0.006,0.005 0.0391,-0.0949 3.41148,-7.54322 c 3.79942,2.13386 7.9582,2.72472 12.53483,2.72472 2.77154,0 5.51407,-0.58341 8.07924,-1.63037 1.96305,1.01671 4.08762,1.39027 5.94078,1.39027 4.61273,0 9.25705,-0.97838 13.90837,-2.74146 2.44868,1.70934 5.48923,2.74146 8.36993,2.74146 4.38243,0 8.79424,-0.88727 13.21043,-2.48462 2.63717,1.69013 5.80017,2.48462 8.73251,2.48462 7.1854,0 14.42846,-2.33066 21.70284,-6.39862 0.004,-0.002 0.008,-0.003 0.0114,-0.005 0.0208,-0.0114 0.0406,-0.0221 0.0614,-0.0335 7.61832,-4.17445 13.44079,-9.11611 16.40975,-15.76764 0.54745,-1.22913 0.75985,-2.60526 0.60859,-3.94225 -0.15127,-1.33699 -0.66582,-2.6313 -1.47403,-3.70707 l -3.21047,-4.27692 c -0.82335,-1.09514 -1.94922,-1.96064 -3.21921,-2.47485 -1.26995,-0.51423 -2.68061,-0.67578 -4.03404,-0.46204 l 0.0558,-0.12841 c 1.41305,-0.033 2.81447,-0.47044 3.9953,-1.24721 1.18085,-0.77678 2.13737,-1.89042 2.72717,-3.17488 l 2.61305,-5.70628 c 0.59793,-1.31033 0.81243,-2.79302 0.60998,-4.21899 -0.20245,-1.426 -0.82115,-2.79056 -1.76017,-3.88258 l 11.64147,-26.19648 c 0.51094,-1.14971 0.73015,-2.42765 0.63094,-3.68193 -0.0992,-1.25421 -0.51648,-2.48242 -1.20185,-3.53747 -1.3707,-2.1101 -3.84752,-3.45507 -6.36373,-3.45615 h -17.23051 c -1.45482,2e-5 -2.90687,0.4293 -4.1279,1.22034 -1.22098,0.79103 -2.20653,1.94088 -2.80114,3.26875 l -3.83584,8.55941 c -2.41937,-1.16703 -5.09924,-1.75863 -7.72748,-1.75877 -3.47585,1.2e-4 -6.90418,0.86666 -10.0502,2.36179 v -0.006 c -0.0227,0.0104 -0.0443,0.023 -0.067,0.0335 -0.0219,0.0105 -0.0451,0.0173 -0.067,0.0279 v 0.006 c -3.82943,1.78121 -7.32949,4.61437 -9.19034,8.64874 -0.0532,0.11596 -0.10345,0.23327 -0.15075,0.35177 -0.57544,1.43647 -1.02178,3.06276 -1.02178,4.9581 0,1.21108 0.29724,2.44447 0.76494,3.62923 -1.55068,0.67415 -2.86319,1.88247 -3.66274,3.3724 -0.36184,-0.058 -0.7279,-0.0898 -1.09435,-0.0949 h -10.93238 c -0.58233,0.002 -1.16438,0.0717 -1.73087,0.20659 -2.59161,-1.15615 -5.44971,-1.7532 -8.25233,-1.7532 -1.46662,0 -2.91206,0.16395 -4.34392,0.41318 l 5.93519,-13.31653 0.0279,-0.0558 h -0.006 c 0.7395,-1.63964 1.26193,-3.53681 1.26221,-5.58902 0,-5.52341 -4.40327,-10.32791 -8.8166,-12.35617 -0.0148,-0.008 -0.0298,-0.015 -0.0447,-0.0223 -3.48943,-1.57634 -7.31901,-2.33928 -11.20598,-2.33946 -1.87204,7e-5 -3.72696,0.16956 -5.5468,0.49344 -0.72119,-7.85304 -1.46642,-16.12653 -1.60664,-18.31161 a 1.5828668,1.5828668 0 0 1 0,-0.0171 c -0.24233,-3.06318 -0.62649,-6.29622 -0.9764,-9.40007 a 1.5828668,1.5828668 0 0 1 0.5566,-1.39097 c -0.10433,0.0874 0.28122,-0.3833 0.64244,-0.94395 0.29524,-0.45825 0.67068,-0.99165 1.17392,-1.49741 0.0752,-0.1568 1.89951,-3.96173 4.78327,-9.65552 a 1.5828668,1.5828668 0 0 1 2.08367,-0.71782 c 9.71247,4.55355 31.36659,14.85988 33.25499,15.75856 l 13.03769,-27.81531 -40.29188,-18.795621 a 1.5828668,1.5828668 0 0 1 -0.78133,-2.067269 c 0,0 0.68844,-1.578062 1.4182,-3.316218 0.72976,-1.738155 1.54625,-3.856051 1.61291,-4.11116 a 1.5828668,1.5828668 0 0 1 0.0206,-0.06805 c 0.79006,-4.292546 -2.26958,-8.711711 -6.4098,-9.872576 a 1.5828668,1.5828668 0 0 1 -0.15179,-0.05095 c -3.15486,-1.240025 -6.1757,-2.738507 -9.39275,-3.607952 a 1.5828668,1.5828668 0 0 1 -0.96525,-0.749577 c -1.26686,-2.243158 -3.69512,-3.583256 -6.14911,-4.437094 a 1.5828668,1.5828668 0 0 1 -0.1176,-0.04606 c -2.44581,-1.077171 -4.89103,-2.220312 -7.4193,-3.153053 a 1.5828668,1.5828668 0 0 1 -0.97641,-1.058063 c -0.83109,-2.965847 -3.30991,-5.339745 -6.29498,-6.094679 a 1.5828668,1.5828668 0 0 1 -0.2181,-0.07258 c -0.20552,-0.08523 -0.20787,-0.08775 -0.0387,-0.0178 -3.62045,-1.504296 -7.11164,-3.281284 -10.83781,-4.356482 a 1.5828668,1.5828668 0 0 1 -0.96001,-0.779936 c -1.18711,-2.240971 -3.49765,-3.702167 -5.94322,-4.420693 a 1.5828668,1.5828668 0 0 1 -0.15285,-0.05339 c 0.0138,0.0056 0.004,0.0019 -0.0276,-0.01117 a 1.5828668,1.5828668 0 0 0 -3.6e-4,0 c -4.20887,-1.721613 -8.2179,-3.964723 -12.58159,-4.901217 -0.19156,-0.02166 -0.38355,-0.03699 -0.57579,-0.03874 z m 31.07919,14.561622 c 0.005,0.0022 0.0104,0.0044 0.0157,0.0066 a 1.5828668,1.5828668 0 0 0 7.1e-4,0 c -0.0113,-0.0047 -0.006,-0.0025 -0.0164,-0.0066 z m -31.2439,-8.564653 c 0.0922,0.0014 0.17127,0.0078 0.2338,0.01152 a 0.63314673,0.63314673 0 0 1 0.17204,0.0349 c 4.14303,1.455526 8.06889,3.412032 12.06408,5.03836 1.3849,0.225734 2.24135,1.612626 1.9884,2.946315 a 0.63314673,0.63314673 0 0 1 -0.0366,0.123184 c -2.10211,5.105803 -4.27673,10.187341 -6.46528,15.261995 l -16.67007,-5.793173 c 1.9945,-4.791902 3.98331,-9.586069 5.96836,-14.37981 a 0.63314673,0.63314673 0 0 1 0.0405,-0.08026 c 0.18633,-0.314541 0.34028,-0.979286 0.61417,-1.637693 0.13695,-0.329205 0.31398,-0.668042 0.60232,-0.956514 0.24236,-0.242472 0.58594,-0.410468 0.96768,-0.494833 a 0.63314673,0.63314673 0 0 1 0.17762,-0.05583 c 0.008,-0.0013 0.0106,7.15e-4 0.0185,-3.57e-4 0.005,-5.36e-4 0.009,-0.0033 0.014,-0.0038 l -0.003,0.0038 c 0.116,-0.0156 0.22147,-0.01923 0.31372,-0.0178 z m 18.59775,9.846753 c 0.0971,0.0019 0.18035,0.0092 0.24777,0.01292 a 0.63314673,0.63314673 0 0 1 0.17064,0.03315 c 3.68455,1.262866 7.17541,3.007536 10.71637,4.443375 0.54908,0.12823 1.16243,0.353819 1.67748,0.769468 0.53393,0.430885 0.95077,1.157749 0.83019,1.997478 a 0.63314673,0.63314673 0 0 1 -0.0387,0.145169 c -3.96532,9.912409 -8.24573,19.711112 -12.32929,29.562939 a 0.63314673,0.63314673 0 0 1 -0.13959,0.207635 c -1.72396,1.705087 -3.94607,2.713003 -5.71709,4.015893 a 0.63314673,0.63314673 0 0 1 -0.61767,0.07468 c -2.48084,-1.029149 -4.96189,-2.058429 -7.44273,-3.087646 A 0.63314673,0.63314673 0 0 1 139.62,94.676377 l -1.07237,-6.062924 1.43773,0.167155 c 0.53894,0.06231 1.09729,-0.05734 1.56337,-0.335007 l 8.22441,-4.868763 c 0.51464,-0.304364 0.91316,-0.799987 1.09994,-1.367944 l 1.75878,-5.376856 c 0.20076,-0.613536 0.15089,-1.304904 -0.13574,-1.883366 -0.28664,-0.578427 -0.80667,-1.037061 -1.41645,-1.248946 l -5.94288,-2.065178 c 1.55532,-3.777588 3.11953,-7.551925 4.70754,-11.316942 a 0.63314673,0.63314673 0 0 1 0.0523,-0.09876 c 0.20435,-0.314604 0.36372,-0.981416 0.63442,-1.653398 0.13535,-0.335991 0.3086,-0.683304 0.59569,-0.982337 0.24239,-0.252474 0.58992,-0.431971 0.97919,-0.525891 a 0.63314673,0.63314673 0 0 1 0.19333,-0.06247 c 0.004,-5.36e-4 0.005,5.36e-4 0.009,0 0.002,-3.57e-4 0.003,-0.0016 0.005,-0.0018 l -0.002,0.0018 c 0.12325,-0.01742 0.23436,-0.02077 0.33151,-0.01884 z m -32.14319,8.724829 0.009,0.0038 29.76464,10.346121 -1.75879,5.376857 -8.22441,4.868763 -12.81959,-1.490779 -4.81851,-5.533542 3.2035,8.006309 -0.73701,2.071459 -6.95139,2.925725 6.34279,0.245672 23.35032,9.983199 8.38144,17.86179 -3.38391,14.85091 8.12775,-12.77666 -1.34561,-4.15409 9.50302,-4.517 2.92572,-0.15634 16.21992,8.07924 -5.85146,11.46875 -12.546,10.75371 9.73753,-3.2049 1.78809,20.6078 c -0.007,-0.004 -0.0146,-0.009 -0.022,-0.0125 -2.57249,-1.39108 -5.53151,-2.10477 -8.42507,-2.10495 l 0.003,0.006 c -3.498,1.5e-4 -6.95223,0.86598 -10.16186,2.35622 v -0.006 c -0.0188,0.009 -0.037,0.0194 -0.0558,0.0279 -1.03515,0.47611 -2.04377,1.0334 -3.00389,1.66875 l 1.06644,-13.47111 -4.72918,-0.0391 2.43578,14.38749 c -1.37343,1.06277 -2.61044,2.30719 -3.62505,3.74091 -1.77448,-0.52677 -3.60424,-0.87779 -5.4634,-1.04411 l -1.2479,-7.2295 -0.89091,7.12133 c -0.11623,-0.002 -0.23224,-0.003 -0.34862,-0.004 -4.96346,0 -9.81662,1.13815 -14.17741,3.36229 l 2.84896,-28.36392 -32.03187,-45.169714 11.73501,-29.051706 z m 48.88759,2.611306 c 0.16694,0.0025 0.34373,0.01251 0.52938,0.04013 a 0.63314673,0.63314673 0 0 1 0.12109,0.03071 c 3.26546,1.173449 6.36249,2.734276 9.50302,4.024266 1.49333,0.270346 2.30607,1.794426 2.09205,3.178377 a 0.63314673,0.63314673 0 0 1 -0.038,0.139236 c -3.42099,8.513537 -7.23084,16.879307 -10.79454,25.311849 a 0.63314673,0.63314673 0 0 1 -0.12563,0.19123 c -1.44188,1.50634 -3.31323,2.33312 -4.76791,3.43626 a 0.63314673,0.63314673 0 0 1 -0.62988,0.0782 c -2.56268,-1.08685 -5.12522,-2.17383 -7.68806,-3.26073 a 0.63314673,0.63314673 0 0 1 -0.37967,-0.49204 c -0.32012,-2.214802 -0.64023,-4.429857 -0.96035,-6.64465 a 0.63314673,0.63314673 0 0 1 0.0457,-0.342335 c 3.20075,-7.383777 6.42033,-14.760743 9.68588,-22.118813 a 0.63314673,0.63314673 0 0 1 0.0265,-0.05339 c 0.24246,-0.431678 0.44653,-1.201159 0.80542,-1.931523 0.33373,-0.679167 0.94094,-1.368041 1.86836,-1.529516 a 0.63314673,0.63314673 0 0 1 0.19646,-0.04885 c 0.002,-1.78e-4 0.003,-8.93e-4 0.005,-0.0011 l -0.002,0.0011 a 0.63314673,0.63314673 0 0 1 0.0373,-0.0028 c 0.14601,-0.003 0.30312,-0.0081 0.47006,-0.0056 z m 15.89816,8.904547 a 0.63314673,0.63314673 0 0 1 0.17797,0.02059 c 3.17402,0.840684 6.05356,2.385735 8.98411,3.490699 0.53644,0.145538 1.19341,0.34651 1.77448,0.738759 0.59923,0.404491 1.12834,1.108523 1.09123,2.008993 a 0.63314673,0.63314673 0 0 1 -0.0408,0.198909 c -2.88118,7.574883 -6.19095,15.020583 -9.22804,22.516291 a 0.63314673,0.63314673 0 0 1 -0.11132,0.18006 c -1.5944,1.81385 -3.66886,3.11551 -5.35069,4.59971 a 0.63314673,0.63314673 0 0 1 -0.66826,0.10713 c -1.99343,-0.85431 -3.98663,-1.70854 -5.97987,-2.5628 a 0.63314673,0.63314673 0 0 1 -0.35525,-0.39468 c -0.61226,-1.97661 -1.22463,-3.95317 -1.83695,-5.92961 a 0.63314673,0.63314673 0 0 1 0.0195,-0.42853 c 2.93468,-7.122514 5.84742,-14.256862 8.8173,-21.369937 a 0.63314673,0.63314673 0 0 1 0.0401,-0.07956 c 0.1912,-0.32162 0.35518,-1.002888 0.65082,-1.664565 0.14781,-0.330838 0.33954,-0.670084 0.64977,-0.94779 0.2612,-0.233824 0.62536,-0.378822 1.02177,-0.433763 a 0.63314673,0.63314673 0 0 1 0.10015,-0.03071 c 0.0583,-0.01238 0.0457,-0.0039 0.0838,-0.0066 0.0116,-5.36e-4 0.0211,-0.0063 0.0328,-0.0066 l -0.003,0.0045 c 0.0479,-0.0011 0.13735,-0.01063 0.13087,-0.01047 z m -56.95881,10.207234 5.18074,0.603012 c -1.06886,1.097176 -2.20919,2.086902 -3.15081,3.160926 a 0.63314673,0.63314673 0 0 1 -0.72934,0.162967 c -0.74772,-0.326048 -1.49542,-0.652114 -2.24314,-0.97815 0.0264,-0.05904 0.0509,-0.119148 0.0726,-0.180065 l 0.73597,-2.070759 c 0.0776,-0.224678 0.12289,-0.460496 0.134,-0.697931 z m 44.6002,75.677647 c 2.29431,1.3e-4 4.54734,0.55082 6.5438,1.63037 2.31235,1.25087 4.10932,3.95709 4.10941,6.64429 -3e-5,0.44688 -0.0543,0.88271 -0.12841,1.31212 3.29771,-1.37724 6.85026,-2.07691 10.54712,-2.07704 3.38866,1.8e-4 6.62433,0.65445 9.5756,1.98771 l 0.0223,0.0111 c 3.64076,1.67325 6.51588,4.92299 6.51588,8.76601 0,1.39702 -0.35584,2.73814 -0.91568,3.97541 l -0.0111,0.0279 -9.72078,21.79253 c 3.70865,-2.13023 7.65334,-3.29423 11.72523,-3.29423 2.93662,0 5.72759,0.70968 8.07925,2.0938 0.56817,-0.35271 1.23519,-0.54432 1.90395,-0.54718 h 10.93274 c 1.16368,0.003 2.31004,0.60307 2.97563,1.55778 l 1.48519,-3.32214 c 0.40998,-0.91719 1.21716,-1.64874 2.17022,-1.96677 0.95303,-0.31805 2.03759,-0.21782 2.91629,0.2694 l 10.29133,5.73524 0.21217,-0.45784 c 0.57657,-1.25702 1.92244,-2.12171 3.3054,-2.12171 h 2.03797 l 1.9542,-4.36625 c -0.10173,0.0487 -0.19852,0.10361 -0.3015,0.15074 -0.009,0.004 -0.0186,0.007 -0.0279,0.0109 -2.71328,1.2154 -5.5386,1.85935 -8.37516,1.85928 -2.34845,7e-5 -4.6385,-0.53508 -6.63871,-1.64711 -2.23202,-1.24069 -4.01451,-3.8633 -4.01451,-6.5103 0,-1.23818 0.29633,-2.38394 0.73702,-3.48406 0.0227,-0.0583 0.0469,-0.11603 0.0726,-0.1731 1.38756,-3.00791 4.04159,-5.23277 7.31465,-6.7448 0.0228,-0.0105 0.0441,-0.023 0.067,-0.0335 v 0.006 c 2.70095,-1.29148 5.5399,-1.99879 8.40273,-1.99888 2.35005,1.3e-4 4.63524,0.53825 6.63313,1.64711 1.01921,0.56567 1.91835,1.43119 2.61305,2.43998 l 5.92405,-13.2216 c 0.56906,-1.27438 1.9264,-2.15521 3.32214,-2.15521 h 17.23086 c 1.20656,0 2.39422,0.64605 3.05101,1.65827 0.65678,1.01235 0.7623,2.35959 0.27113,3.46174 l -12.97592,29.19653 c 1.04933,0.23926 1.97545,0.97018 2.45253,1.93502 0.47711,0.96482 0.49542,2.1444 0.0485,3.12359 l -2.61305,5.70627 c -0.57496,1.25904 -1.92124,2.1255 -3.3054,2.12729 h -2.38971 l -7.92849,17.77211 c 0.74116,-0.41666 1.53946,-0.91386 2.39529,-1.5187 3.32648,-2.35076 5.19247,-4.54088 5.89611,-6.14738 0.50725,-1.15798 1.65717,-2.0085 2.91283,-2.15451 1.25569,-0.14601 2.57011,0.41803 3.32946,1.42866 l 3.21083,4.27692 c 0.77495,1.03182 0.93886,2.4899 0.41284,3.66833 -2.45386,5.49787 -7.53479,9.98704 -14.72913,13.92511 -0.002,0.002 -0.003,0.004 -0.006,0.006 -0.0111,0.006 -0.0224,0.0105 -0.0335,0.0168 -6.8654,3.84444 -13.47312,5.91286 -19.80377,5.91286 -3.03096,0 -5.98688,-0.96665 -8.08482,-3.02064 -4.74852,1.96655 -9.37599,3.02064 -13.85811,3.02064 -2.8707,0 -5.69606,-1.2518 -7.64339,-3.35565 -5.02385,2.18191 -9.90873,3.35565 -14.6342,3.35565 -1.83512,0 -3.76206,-0.4639 -5.2931,-1.70295 -0.1009,-0.0816 -0.17287,-0.1868 -0.26801,-0.27359 -2.60519,1.42839 -5.47585,2.21663 -8.45892,2.21663 -4.17785,0 -7.70716,-0.59104 -10.61413,-2.2278 -1.34342,-0.75667 -2.49442,-1.80679 -3.4059,-3.0318 -0.16552,0.4151 -0.30937,0.79496 -0.51368,1.30652 -0.0194,0.0488 -0.0399,0.0972 -0.0614,0.14517 l -4.97485,10.99939 -0.0167,0.0447 h -0.006 c -1.88515,4.28022 -5.94208,7.25763 -11.28414,9.27375 -0.002,0.002 -0.003,0.006 -0.006,0.006 -4.29094,1.62758 -8.45159,2.49021 -12.45666,2.49021 -3.87143,0 -7.18782,-0.61046 -9.84361,-2.47345 -2.65579,-1.863 -4.13175,-5.13477 -4.13175,-8.41426 0,-2.3011 0.59092,-4.62086 1.59686,-7.00164 0.009,-0.0206 0.0184,-0.041 0.0279,-0.0614 l 6.06921,-13.61837 c -2.49942,2.6127 -5.57849,4.94393 -9.2071,6.98524 h -0.005 c -6.1911,3.47549 -12.31321,5.33777 -18.29241,5.33777 -4.36098,0 -8.39857,-1.22603 -11.61356,-3.72974 -0.005,-0.004 -0.0114,-0.007 -0.0167,-0.0111 -0.20254,-0.15669 -0.3765,-0.33774 -0.56952,-0.50251 -5.719943,2.76646 -11.257523,4.24342 -16.599226,4.24342 -1.7574,0 -3.457965,-0.48954 -5.069767,-1.27862 -0.01374,-0.006 -0.02538,-0.0161 -0.03908,-0.0223 -0.02564,-0.0127 -0.05257,-0.0206 -0.07817,-0.0335 l 0.0056,-0.005 c -2.661293,-1.25123 -4.71064,-3.63276 -5.538777,-6.39304 l -2.467882,5.56669 c -0.566563,1.28028 -1.927709,2.16643 -3.327733,2.16637 H 54.587942 c -1.20656,0 -2.394213,-0.64605 -3.051003,-1.65827 -0.656791,-1.01235 -0.76231,-2.35959 -0.271146,-3.46174 l 0.658846,-1.48519 c -6.189136,4.40636 -14.701065,6.6052 -24.958343,6.6052 -6.749267,0 -12.028883,-0.73442 -16.11382,-2.71355 -4.0849372,-1.97913 -6.8959083,-5.9318 -6.8959024,-10.31261 -1.79e-5,-2.25161 0.5966691,-4.5172 1.596865,-6.8844 0.00912,-0.0206 0.018423,-0.041 0.027917,-0.0614 L 26.73214,187.91115 c 0.0018,-0.007 0.0037,-0.0148 0.0056,-0.0223 2.623594,-5.7941 7.076413,-10.34831 12.931257,-13.36677 v -0.006 c 4.968818,-2.57245 10.501073,-3.85243 16.404158,-3.85257 3.067589,1.2e-4 6.043342,0.39084 8.911177,1.13343 2.770103,-1.59742 5.898752,-2.43987 9.151265,-2.43996 2.881772,0 5.572679,0.57469 7.677236,2.32829 2.104502,1.75365 3.093172,4.5448 3.093228,7.2529 -3.6e-5,1.0488 -0.176393,2.08701 -0.429926,3.12114 1.21603,-0.36967 2.608416,-1.04412 4.215501,-2.22221 0.01245,-0.009 0.02651,-0.0186 0.03908,-0.0279 0.887276,-0.65695 2.090673,-1.07193 3.22723,-1.07202 1.716306,9e-5 3.219361,0.80126 4.293669,1.74203 1.148599,1.00645 2.193588,2.67419 2.193945,4.517 -1.79e-4,1.06255 -0.379656,2.25341 -1.016187,3.14906 l 0.0056,0.006 c -0.01907,0.0273 -0.04218,0.0511 -0.06142,0.0782 -0.0024,0.003 -0.0032,0.007 -0.0056,0.0109 -3.505688,4.92736 -9.845908,7.4067 -18.368834,8.54302 l -2.272462,5.08651 c 0.08331,0.036 0.165283,0.0751 0.245672,0.11726 l 8.737741,4.651 c 3.764403,-2.83801 8.557178,-4.25453 13.908708,-4.25458 3.405632,1.8e-4 6.643142,0.97277 8.866512,3.29423 1.65484,1.72792 2.55016,3.96157 2.90339,6.42096 l 11.80305,-26.44842 c 0.002,-0.006 0.004,-0.0113 0.006,-0.0168 2.18067,-4.81873 5.63861,-8.71428 10.13396,-11.37348 0.0111,-0.006 0.0223,-0.0113 0.0335,-0.0168 4.11048,-2.37587 8.72308,-3.579 13.58452,-3.579 3.38848,0 6.62433,0.65453 9.5756,1.98771 0.007,0.004 0.0149,0.007 0.0223,0.0113 0.0843,0.0387 0.16219,0.088 0.24567,0.12841 0.0611,-0.19518 0.0971,-0.39238 0.1675,-0.58627 0.035,-0.0965 0.0742,-0.19154 0.11725,-0.28475 1.39131,-3.01613 4.05582,-5.24554 7.34782,-6.75561 0.01,-0.005 0.018,-0.0125 0.0279,-0.0172 v 0.006 c 2.77457,-1.29132 5.64838,-1.99877 8.52069,-1.99888 z M 54.258171,185.41048 c 0.0013,0 -0.0066,0.0163 -0.08864,0.0851 -0.162786,0.13656 -0.551162,0.58229 -0.949185,1.45729 l -0.0056,0.0168 -21.9712,49.28437 c -0.153255,0.34511 -0.161922,0.51886 -0.16192,0.54718 0,0.24707 -0.0026,0.28039 -0.0056,0.31825 0.03019,0.008 0.394182,0.201 1.474029,0.201 2.270005,0 3.408474,-0.71444 4.868764,-4.01448 0.0019,-0.004 0.0037,-0.008 0.0056,-0.0111 l 17.766868,-39.78798 c 0.005,-0.0123 0.0063,-0.0266 0.01117,-0.0391 0.437314,-1.10775 0.675549,-2.35262 0.675597,-3.83583 -1.8e-5,-2.21062 -0.441923,-3.48772 -0.692347,-3.86374 -0.250424,-0.37603 -0.06071,-0.34055 -0.893351,-0.34059 v 0.002 c -0.04563,2e-5 -0.0354,-0.0177 -0.0342,-0.0181 z m 114.858419,2.87616 c -2.05048,0.95149 -4.26788,1.7375 -6.63278,2.35029 -0.84295,0.21653 -1.763,0.11745 -2.54047,-0.27358 l -5.51086,12.38965 c 1e-5,0.002 1e-5,0.004 0,0.006 -4.75262,10.64981 -12.90912,18.47464 -23.88108,23.0645 l -5.40478,12.16633 c 2.28001,-0.0963 5.08339,-0.98452 8.42542,-3.04298 3.47424,-2.13976 5.4805,-4.39458 6.46005,-6.70014 0.49759,-1.1695 1.6483,-2.03457 2.91002,-2.18765 1.26159,-0.15307 2.58624,0.41169 3.34902,1.42831 l 3.20489,4.27727 c 0.0529,0.0707 0.10317,0.14337 0.15076,0.21775 z m 40.05598,26.7447 c -0.013,-0.0112 -0.0384,0.0952 -0.067,0.19543 0.0205,-0.0428 0.0652,-0.17309 0.067,-0.19543 z"
  />
  <path
     d="m 172.97393,166.79939 c -2.29645,9e-5 -4.63113,0.5544 -7.00727,1.66387 -2.77278,1.26673 -4.63345,2.92661 -5.58344,4.98597 -0.31671,0.87269 -0.47462,1.67108 -0.47458,2.38417 -4e-5,3.00952 1.97555,4.51142 5.93524,4.51142 0.6333,8e-5 1.30806,-0.0805 2.02112,-0.24007 -1.10717,2.456 -3.52231,4.00096 -7.24722,4.63416 l 0.95478,2.37864 c 8.87151,-2.29877 14.85017,-6.85629 17.94027,-13.66827 0.3166,-0.71307 0.47453,-1.38223 0.47458,-2.01558 -5e-5,-1.50349 -0.73383,-2.652 -2.19978,-3.44494 -1.46615,-0.79279 -3.07009,-1.18917 -4.81302,-1.18926 z m -98.838573,6.20325 c -3.169253,9e-5 -6.023688,0.91015 -8.559376,2.73026 -3.009699,-0.94992 -6.176807,-1.42366 -9.503111,-1.42379 -5.385834,1.3e-4 -10.293369,1.14864 -14.729214,3.44494 -5.228605,2.69292 -8.993365,6.57006 -11.289814,11.64144 L 8.9064363,236.7967 c -0.870249,2.05953 -1.3065259,3.88286 -1.3065259,5.46623 -8.4e-6,6.25846 6.4580346,9.38573 19.3696376,9.38573 15.683492,0 25.742804,-4.9506 30.179185,-14.85196 L 76.51301,193.42986 c 9.188116,-0.9524 15.172496,-3.41063 17.945636,-7.37014 0.23681,-0.31661 0.351659,-0.66995 0.351766,-1.06645 -9.5e-5,-0.63326 -0.315942,-1.22627 -0.949185,-1.78113 -0.633422,-0.55468 -1.265128,-0.83746 -1.898371,-0.8375 -0.396541,4e-5 -0.755454,0.12368 -1.072022,0.36292 -3.009699,2.21676 -5.821075,3.32219 -8.436628,3.32219 -0.950079,6e-5 -2.055601,-0.19534 -3.322194,-0.59186 1.426128,-2.37614 2.138325,-4.55287 2.138504,-6.53254 -8.3e-5,-3.95951 -2.377744,-5.94079 -7.130014,-5.94079 z m 72.813473,1.30651 c -4.27862,1.4e-4 -8.20132,1.02817 -11.76436,3.0876 -3.88233,2.29645 -6.77107,5.54431 -8.67105,9.74306 l -22.10508,49.54525 c -0.47622,1.10956 -0.7091,2.26125 -0.7091,3.45048 0,0.0434 -3.6e-4,0.0853 0,0.12841 -0.9499,0.3033 -1.83584,0.46344 -2.65772,0.46344 -1.186944,2e-5 -1.781165,-0.51688 -1.78113,-1.54661 -4.8e-5,-0.47381 0.157877,-1.10552 0.474584,-1.89837 l 6.057996,-13.42814 c 1.42616,-3.24643 2.13832,-6.29312 2.1385,-9.14577 -6e-5,-5.78212 -2.76849,-8.67658 -8.313704,-8.67658 -5.702438,5e-5 -10.179377,1.66542 -13.428138,4.99169 L 75.262873,205.20575 54.587156,251.66 h 17.342088 l 15.449434,-34.8121 c 0.792849,-1.74288 2.059353,-2.61305 3.802281,-2.61305 1.107094,0 1.663831,0.4339 1.663866,1.30651 -4.1e-5,0.31672 -0.083,0.70998 -0.240097,1.18369 l -10.457746,23.29502 c -0.792902,1.82029 -1.1893,3.44262 -1.189264,4.86876 -3.1e-5,2.69292 1.309599,4.63417 3.925206,5.82358 1.266628,0.63333 2.452606,0.94918 3.562326,0.94918 5.331519,0 11.104354,-1.69106 17.31422,-5.05851 0.57758,0.75747 1.27356,1.45534 2.09383,2.0883 2.53569,1.97984 5.66867,2.97039 9.39127,2.97039 5.22628,0 10.72807,-1.62231 16.51019,-4.86876 6.33815,-3.56554 10.61409,-7.84702 12.83067,-12.83638 l -3.20499,-4.27701 c -1.34649,3.16907 -3.9797,5.96026 -7.90061,8.37516 -3.92092,2.41491 -7.50487,3.62362 -10.75381,3.62362 -2.456,0 -3.68507,-0.87259 -3.68507,-2.61306 -3e-5,-0.63574 0.20097,-1.34803 0.59744,-2.1385 l 6.1752,-13.90287 c 10.93104,-4.19875 18.69962,-11.44418 23.29502,-21.74237 l 7.71641,-17.34781 c 0.39638,-0.87016 0.59736,-1.7028 0.59744,-2.49584 -7e-5,-2.29627 -1.46446,-4.11406 -4.39422,-5.46052 -2.456,-1.10953 -5.14945,-1.66374 -8.07929,-1.66389 z m 47.09568,0 c -4.27862,1.4e-4 -8.20132,1.02817 -11.76436,3.0876 -3.88233,2.29645 -6.77107,5.54431 -8.67105,9.74306 l -31.60854,70.93208 c -0.87024,2.05953 -1.30653,3.91788 -1.30653,5.58344 0,4.82981 3.44315,7.24722 10.335,7.24722 3.48335,0 7.21041,-0.75215 11.17243,-2.25571 4.83213,-1.82261 7.91652,-4.28076 9.26297,-7.37015 l 4.99169,-11.04396 c 0.6333,-1.58577 0.94915,-2.65682 0.94919,-3.21052 -4e-5,-0.63334 -0.35338,-1.34555 -1.06645,-2.13851 0.79285,0.23937 1.66301,0.35734 2.61305,0.35734 0.89993,0 1.87729,-0.12303 2.93127,-0.37408 0.71327,4.68527 4.87626,7.0296 12.48458,7.0296 3.56554,0 6.77017,-1.26656 9.62032,-3.80228 0.39639,2.37632 1.86388,3.56233 4.39975,3.56233 4.9179,0 10.21154,-1.43717 15.87932,-4.30488 0.3235,0.70276 0.74946,1.36779 1.28976,1.9877 1.34648,1.54463 3.04937,2.31718 5.1089,2.31718 4.6733,0 9.68821,-1.29883 15.03617,-3.88608 0.32707,0.68277 0.76369,1.30528 1.32328,1.86496 1.34643,1.34644 3.20713,2.02112 5.58345,2.02112 5.54521,0 11.56711,-1.82333 18.06177,-5.46624 6.81198,-3.72259 11.20834,-7.80306 13.18818,-12.23891 l -3.21052,-4.27701 c -1.1096,2.53337 -3.48729,5.08603 -7.13001,7.66049 -3.64291,2.57446 -6.68977,3.86374 -9.14578,3.86374 -0.79288,4e-5 -1.1893,-0.27835 -1.18926,-0.83192 -4e-5,-0.15712 0.0375,-0.35252 0.11724,-0.59185 l 11.28982,-25.30327 h 4.75155 l 2.61305,-5.70637 h -4.75155 l 15.2093,-34.22071 h -17.2306 l -15.32651,34.22071 h -4.39421 l -2.61859,5.70637 h 4.5225 l -11.28982,25.30327 c -0.0724,0.1689 -0.14152,0.33524 -0.20657,0.50251 -0.92998,0.29211 -1.80082,0.44668 -2.60752,0.44668 -1.18935,2e-5 -1.78113,-0.51688 -1.78113,-1.54661 0,-0.47381 0.15791,-1.10552 0.47461,-1.89837 l 11.07755,-24.79942 -13.07866,-7.25401 -15.56217,34.80495 c -1.23124,0.47641 -2.36453,0.71469 -3.39474,0.71469 -1.18692,1e-5 -1.77559,-0.51688 -1.77552,-1.54661 -7e-5,-0.55359 0.15788,-1.1853 0.47459,-1.89837 3.24644,-7.28814 5.6583,-12.75562 7.24168,-16.39853 l 5.23164,-11.75864 h -10.93247 l -1.06645,2.37291 c -2.05953,-2.61305 -5.03457,-3.91948 -8.91671,-3.91948 -5.22861,1e-5 -10.21672,2.17674 -14.96917,6.53254 -3.95951,3.6454 -7.16986,8.24259 -9.62586,13.78547 l -1.66388,3.67954 c -0.99723,2.255 -1.75737,4.31167 -2.28913,6.16966 -0.0974,0.004 -0.19321,0.0111 -0.29034,0.0111 -3.08938,0 -4.95005,-1.74032 -5.58344,-5.22611 3.01202,-1.26664 6.10177,-3.87964 9.26852,-7.83915 2.53569,-3.16907 4.55448,-6.45982 6.05799,-9.86599 l 13.77994,-30.89387 c 0.39638,-0.87016 0.59733,-1.7028 0.59744,-2.49584 -1.3e-4,-2.29627 -1.46446,-4.11406 -4.39422,-5.46052 -2.456,-1.10953 -5.14945,-1.66374 -8.07929,-1.66389 z m -121.813778,4.86876 c 1.029694,1.1e-4 1.546534,0.75224 1.546605,2.25571 -7.3e-5,1.10962 -0.240954,2.14333 -0.714681,3.09332 -0.239382,0.0798 -0.434794,0.1173 -0.591845,0.11724 -0.71318,6e-5 -1.349246,-0.31578 -1.903909,-0.94918 -0.554843,-0.63326 -0.831996,-1.34551 -0.831925,-2.13851 -7.1e-5,-1.58328 0.832621,-2.37845 2.495844,-2.37863 z m -17.940276,2.61305 c 3.485677,1.1e-4 5.226104,2.61609 5.226104,7.8447 -6.1e-5,1.90248 -0.315907,3.64273 -0.949186,5.2261 l -17.822353,39.92207 c -1.822615,4.11907 -4.553589,6.18092 -8.196496,6.18092 -3.40599,0 -5.108896,-1.38702 -5.108896,-4.15962 -2.8e-5,-0.63332 0.157898,-1.30808 0.474584,-2.02112 l 21.974649,-49.31298 c 1.109488,-2.45582 2.573923,-3.68507 4.394215,-3.68507 z m 140.345454,0.83195 c 1.26657,7e-5 1.89837,0.43636 1.89837,1.30652 -7e-5,0.15961 -0.0376,0.31755 -0.11726,0.47459 l -13.54535,30.4186 c -2.69292,5.94186 -5.62168,9.34749 -8.78843,10.21779 8.07857,-18.05998 14.09726,-31.60497 18.05641,-40.63675 0.55593,-1.1868 1.38618,-1.78104 2.49585,-1.78111 z m -46.97955,0.12283 c 1.18927,7e-5 1.78665,0.39331 1.7867,1.18369 -0.0798,0.15961 -0.12289,0.31755 -0.12283,0.47459 l -7.60456,16.87325 c -2.69292,6.02155 -5.6249,9.42736 -8.79397,10.21762 5.38565,-11.96072 9.38876,-20.91157 12.00449,-26.85056 0.55352,-1.26661 1.46358,-1.89837 2.73026,-1.89837 z m 109.0335,3.0876 c -2.29877,7e-5 -4.59361,0.55681 -6.88988,1.66389 -2.77279,1.26911 -4.639,2.93215 -5.58899,4.99151 -0.31669,0.79056 -0.4746,1.49961 -0.4746,2.13296 0,1.42625 0.71781,2.53479 2.14404,3.32773 1.42624,0.79291 3.04848,1.18932 4.86877,1.18927 2.29645,5e-5 4.59111,-0.5112 6.89006,-1.54103 2.7726,-1.26903 4.63327,-2.97182 5.58344,-5.1089 0.31657,-0.71305 0.47453,-1.39096 0.47458,-2.02683 -5e-5,-1.5035 -0.71226,-2.64772 -2.1385,-3.43941 -1.42623,-0.79159 -3.04847,-1.18919 -4.86876,-1.18928 z m -46.04689,28.74982 c 1.34641,4e-5 2.02112,0.47698 2.02112,1.42937 -6e-5,0.15715 -0.083,0.39248 -0.2401,0.70909 l -10.335,23.29502 c -1.34648,3.00952 -2.8539,4.51142 -4.51696,4.51142 -0.94999,0 -1.42379,-0.55432 -1.42377,-1.66385 -2e-5,-1.02978 0.2783,-2.17835 0.83194,-3.44494 l 10.10041,-22.57319 c 0.63329,-1.50598 1.8194,-2.26125 3.56232,-2.26125 z m -43.33289,25.43192 c 1.02975,0.31673 1.541,1.34478 1.54103,3.0876 -2e-5,2.1369 -0.59182,4.51446 -1.78112,7.13002 l -4.75978,10.55941 c -0.47622,1.18931 -1.54739,1.78668 -3.21052,1.7867 -0.7929,-2e-5 -1.1893,-0.31587 -1.18927,-0.94919 -10e-6,-0.23933 0.0805,-0.52086 0.2401,-0.83751 4.03938,-9.26799 7.09178,-16.19414 9.15131,-20.7865 z"
  />
</svg>
