<svg class="logo" viewBox="0 0 200 200" version="1.1" xmlns="http://www.w3.org/2000/svg">
  <path class="logo-p logo-p1" d="m 76.126308,177.6403 v -23.92332 a 16.420954,16.417962 0 0 0 2.50224,-1.25089 c 11.41647,-6.72355 12.51121,-25.79966 2.65863,-42.53034 C 71.434608,93.205064 54.231701,84.917902 42.815228,91.641449 31.398755,98.364995 30.304024,117.4411 40.156598,134.17179 a 51.295935,51.286587 0 0 0 5.317261,7.34899 v 17.66886 L 20.920621,145.1171 V 57.710993 L 12.319169,52.081978 A 99.933239,99.915028 0 0 0 96.613408,200 v -10.31986 z"/>
  <path class="logo-p logo-p2" d="m 47.66332,38.1658 15.013443,8.912608 a 52.077885,52.068395 0 0 0 -0.31278,6.0981 C 62.520374,66.310878 80.348838,76.474379 99.897588,76.161656 119.44636,75.848933 133.20867,64.121817 133.20867,52.551062 133.05229,39.416692 120.38469,29.09683 100.99232,28.471384 A 72.721371,72.708119 0 0 0 85.040548,30.035 l -10.94731,-7.03627 25.960742,-14.697985 76.63113,44.56304 8.75784,-4.847208 A 99.933239,99.915028 0 0 0 15.13419,47.23477 l 8.757843,5.472654 z"/>
  <path class="logo-p logo-p3" d="m 179.18735,86.481518 -16.26456,8.443523 c -0.62557,-0.156361 -4.22254,-3.439954 -5.00448,-3.909038 -11.57287,-6.410824 -28.463,2.0327 -38.00279,19.076107 -9.53979,17.04341 -8.60146,36.43224 2.81502,42.84306 11.41648,6.41083 28.77577,-1.25089 38.15917,-18.2943 a 98.212948,98.195051 0 0 0 4.53531,-11.88347 l 13.91872,-7.97444 v 30.4905 l -76.47473,44.56304 v 10.00714 A 99.933239,99.915028 0 0 0 187.94519,52.394701 l -8.75784,4.847208 z"/>
</svg>
