<svg xmlns="http://www.w3.org/2000/svg" viewBox="0 0 100 100">
  <path fill="#000" d="M100 50a50 50 0 0 1-50 50A50 50 0 0 1 0 50 50 50 0 0 1 50 0a50 50 0 0 1 50 50z"/>
  <path fill="#fff" d="M68.7 52.8a11.8 11.8 0 0 0-6-2.9h-1l.7-1.2c1.1-2.2 1.6-4.2 1.6-6.7 0-2 0-2 .5-1.8 1.9.6 4.2.7 6.2.2.7-.2 2.3-.8 3.5-1.4 2-1 2.2-1 2.7-.8 1.8.8 2.6 3.1 3 8.9.2 2.5 0 3.8-1.2 5-1.3 1.4-2.4 1.7-6 1.7h-3zm-3-15.3c-2.1-.7-4-2.4-5-4.4a8.8 8.8 0 0 1-.1-5.8c.8-2.2 2.6-4 4.8-4.8.7-.3 1.5-.4 2.8-.4 1.6 0 2 .1 3.2.7 1.6.9 3 2.3 3.8 4 .5 1 .6 1.4.6 3.2 0 1.9 0 2.2-.6 3.3-.8 1.6-2.3 3-3.8 3.8-1.4.7-4.2.9-5.6.4zm-19 16a11 11 0 0 1-5.1-3.2 11.3 11.3 0 0 1-3.4-9.4c.2-3 1.3-5.2 3.5-7.4A12 12 0 0 1 61.2 38c.5 1.2.7 5.1.4 6.7-.6 2.6-2.6 5.6-5 7.1-.6.5-2 1-2.8 1.4a13.6 13.6 0 0 1-7 .2zm-13.2 24c-1.3-.3-3-1.4-3.7-2.2l-1-1.7c-.6-1.2-.6-1.3-.6-5 0-4 .3-5.9 1.3-8.8 1.4-4.1 3.7-6.6 6.9-7.4 2-.5 2.5-.4 4.2.8 2.1 1.3 3.3 2 5.3 2.6 1.4.5 2 .5 4.1.5 2.2 0 2.7 0 4.2-.5 1.7-.6 3-1.3 5.3-2.8 1.5-1 2.1-1 3.9-.6 5.3 1.2 8.3 7.2 8.4 16.5 0 3.3 0 3.3-.6 4.6a7 7 0 0 1-4.9 4c-1 .4-2.9.4-16.4.4-12.7 0-15.5-.1-16.4-.4zm-10.3-24a5 5 0 0 1-3-3c-.5-2 0-8 1-10.2.5-1.2 1.2-2 2-2.2.3 0 1.1.2 2.6 1a12.8 12.8 0 0 0 9.8 1.1c.2-.1.3.2.3 1.7 0 2.4.4 4 1.4 6.2l.9 1.7-1.5.3a13 13 0 0 0-5.6 2.7l-1 1h-3a14 14 0 0 1-3.9-.4zm6.7-16c-3-.6-5.1-3.1-5.8-6.5-.3-1.7.2-3.7 1.3-5.5a7.3 7.3 0 0 1 6.4-3.4c2.6 0 4.2.7 6 2.6a7 7 0 0 1 1.9 5c0 2.5-.4 3.9-2.1 5.8a7.2 7.2 0 0 1-5.2 2.2l-2.5-.1z"/>
</svg>
