<svg xmlns="http://www.w3.org/2000/svg" viewBox="0 0 100 100">
  <path fill="#000" d="M100 50a50 50 0 0 1-50 50A50 50 0 0 1 0 50 50 50 0 0 1 50 0a50 50 0 0 1 50 50z"/>
  <path fill="#fff" d="M28 79.6c-.5-.2-1-.8-1.3-1.3-.4-.8-2.8-18.6-2.8-20.9 0-2 .7-4 2.5-7.6 1.4-2.9 1.6-3.5 1.2-3.9l-3.8-4.6c-2-2.5-3.5-4.6-3.7-5.2A57.3 57.3 0 0 1 22 24c.7-1.3 3.2-2 4.5-1 1.4 1 1.4 2 .5 6.4l-.8 4.2 2.5 2.6 2.5 2.5 3-.3a51 51 0 0 0 3.5-.5c.3-.1 1.3-1.4 2.1-3 2.8-4.8 2.7-4 1.2-7.8-.7-1.8-1.3-3.8-1.3-4.4 0-2.5 3-3.8 4.7-2 1.2 1.3 4.4 9.8 4.2 11 0 .6-1.6 3.6-3.5 6.6L41.7 44l-1 4.6-1 5c0 .4 1 2.7 2.3 5.2 3 5.4 2.9 5.1 1.1 13.4-1.4 6.5-1.8 7.4-3.7 7.7-1.4.3-2.7-.4-3.4-1.7-.5-1-.5-1 .4-6.5l.9-6.2c0-.7-4-6.5-4.4-6.5-.6 0-1.1 1-1.1 2.2 0 .7.2 4.4.6 8.3.3 4 .5 7.5.4 7.9-.4 2-3.2 3.2-4.9 2.2zm22.3 0c-.8-.5-1.7-1.8-1.7-2.7a80.7 80.7 0 0 1 5.7-17c2.4-4.9 2.9-6 3.2-8.2.5-2.7.5-4.5 0-4.5l-2 2.3c-1.6 2-2 2.7-3 5.6-1.2 4-1.9 4.7-3.5 4.7-1.5 0-2.6-.8-2.9-2.1-.1-1 1.7-7.8 2.6-9.6.8-1.5 6.5-8.3 7.5-8.8.5-.3 3-1 5.6-1.6l4.6-1.2 2.4-3.7c2-3 2.8-4.5 3.8-7.4C74.2 21 75 20 76.8 20c1 0 1.4.2 2.2 1 .7.7 1 1.3 1 1.9 0 1.7-3.3 9.4-6.2 14.5l-2.9 5-.2 3c-.2 1.6-.5 4-.9 5.5l-.5 2.4 1.8 4 2.2 5a96.7 96.7 0 0 1 1 16c-1 1.9-3.6 2.3-5 .7-.9-.9-1-1.8-1.7-8.6l-.5-5.6-1.6-2.4a38 38 0 0 0-2-3c-.7-.6-.4-1-3.5 4.7a28.6 28.6 0 0 0-3.4 9c-1.1 4-1.5 5.2-2.2 5.9-1 1-2.9 1.3-4.1.6zM31.8 35.3c-1.5-.8-2.5-2.3-2.6-4.3-.1-2 .5-3.5 2-4.7.8-.7 1.2-.8 3-.8 2.5 0 3.6.7 4.6 2.6.8 1.6.6 4.2-.3 5.5a5.6 5.6 0 0 1-6.7 1.7zm26.2 0c-1.6-.8-2.5-2.3-2.6-4.3-.2-2 .4-3.5 1.9-4.7.9-.7 1.3-.8 3-.8 2.5 0 3.7.7 4.6 2.6.8 1.6.7 4.2-.3 5.5a5.6 5.6 0 0 1-6.6 1.7z"/>
</svg>
