<svg xmlns="http://www.w3.org/2000/svg" viewBox="0 0 100 100">
  <path fill="#000" d="M100 50a50 50 0 0 1-50 50A50 50 0 0 1 0 50 50 50 0 0 1 50 0a50 50 0 0 1 50 50z"/>
  <path fill="#fff" d="M76.4 74.3s-.2-7.2-.2-15.8l-.1-15.8c-.1-.1-6 2.7-13 6.2-7.2 3.6-13.1 6.5-13.4 6.5-.3 0-28.7-14.1-29.7-14.8a416.2 416.2 0 0 1 29.7-15.1L65.1 33 80 40.4v34h-1.7a6 6 0 0 1-1.9 0zM40 69.6L31 64.9v-8.1c-.2-8-.1-8.1.4-8.1.3 0 4.6 2 9.5 4.4l9 4.5 8.9-4.5c4.9-2.4 9.2-4.4 9.5-4.4.5 0 .5 0 .4 8V65l-9.2 4.7c-5 2.5-9.4 4.6-9.7 4.6-.3 0-4.6-2-9.7-4.6z"/>
</svg>
